<svg id="a02bb6fe-c392-4912-a4c9-b7c417debfc4" data-name="Sizing" xmlns="http://www.w3.org/2000/svg" viewBox="0 0 1080 1080"><defs><style>.bddafc29-b0a2-4046-9526-4f6deaf5325f,.beb59a6f-1116-4b99-bb02-6916c9062ee4{fill:none;stroke:#000;stroke-miterlimit:10;stroke-width:22px;}.beb59a6f-1116-4b99-bb02-6916c9062ee4{stroke-dasharray:55.45 55.45;}</style></defs><title>Artboard 1</title><path id="bef1fd56-cfd6-4c20-a0b6-341e7f1b6b18" data-name="path" d="M248,363c61.88-3.4,122,8.06,182,21.3q41,9.06,82.49,16.34c27.68,4.86,55.25,1.45,82.53-3.94,38.25-7.56,76.29-16.28,114.69-23C770.58,363,831.9,359,893.51,366c55,6.26,110,13.25,164.92,19.92,4.43.53,8.87,1,13.27,1.69,4.62.74,7.17,3.35,7.25,8.32.29,19.13.78,38.26,1,57.39.09,6.43-1.69,8.26-8,8.9-8.29.84-14,5.52-18.35,12.18-6.36,9.73-8.47,20.83-10.49,32-7,38.71-13.32,77.62-25.75,115.07C1006,656,986.87,685,955,704.21c-21.73,13.07-45.63,19.68-70.54,22.71-39.92,4.85-79.76,4.3-119.35-3.3-58.23-11.18-100.19-44.45-129.45-95.1-20.35-35.22-35.08-72.82-47.89-111.27a146.17,146.17,0,0,0-8.07-18.91c-12.75-25.6-52.48-29.15-70.85-7.4-10,11.88-16.33,25.65-21.51,40-10.47,29-22,57.54-37.08,84.52-20.52,36.79-47.53,67.26-85.46,87-24.87,12.94-51.48,20.2-79.14,23.59-32.84,4-65.66,4.41-98.17-3-34.83-7.94-66.63-21.77-92.41-47.42C77.36,658,67.28,636.52,60.93,612.78A1179.86,1179.86,0,0,1,35.19,492c-2.58-16.31-11.11-28.17-27.49-33.19-4.89-1.5-7-4.89-7-9.53C1,430.85,1.2,412.46,2,394.09c.38-9.11,4.19-12.53,13.28-13.35,65.33-5.94,130.65-12,196-17.55C223.41,362.15,235.75,363,248,363Zm2.4,19.29c-7.62,0-15.24-.18-22.85,0-25.48.72-50.85,2.3-75.75,8.38-37.24,9.09-62.43,31.05-72.44,68.57a226.67,226.67,0,0,0-6.52,36.09c-3.67,37.05-2.41,73.89,8.31,109.85C97.27,659.32,131.63,694.81,187.69,707c34.8,7.59,69.92,6.17,104.76.31,60.07-10.09,105.17-42.69,135.38-94.9,21.53-37.21,33.37-78,36.87-121,2-24.55-6.32-44.78-24.77-61-18.71-16.43-41-26-64.46-33C334.68,385.26,292.82,381.27,250.4,382.33Zm583.49,1.9c-44.84-.26-77.11,1.52-109,7.62-24,4.6-47.33,11.39-68.27,24.56-26.59,16.73-40.72,40.43-38.38,72.25,3,41.49,12.51,81.57,31.53,118.72,24,46.79,60.48,79.57,111.7,94.22,42.15,12.06,85.07,12.93,128.19,6.36,21.91-3.33,42.61-10.31,60.84-23.38,23.62-17,37.12-40.76,44.57-68.12,12.45-45.68,14.43-92.42,10.82-139.3-2.45-31.81-17-57.3-46.84-71.5a186.48,186.48,0,0,0-36.74-12.61C889.2,385.12,855.31,384.51,833.89,384.23Z"/><line class="bddafc29-b0a2-4046-9526-4f6deaf5325f" x1="96.64" y1="870.65" x2="124.14" y2="870.65"/><line class="beb59a6f-1116-4b99-bb02-6916c9062ee4" x1="179.59" y1="870.65" x2="928.17" y2="870.65"/><line class="bddafc29-b0a2-4046-9526-4f6deaf5325f" x1="955.9" y1="870.65" x2="983.4" y2="870.65"/><polygon points="1080 871.5 982.95 830.49 982.95 912.51 1080 871.5"/><polygon points="0 871.5 97.05 912.51 97.05 830.49 0 871.5"/></svg>