<svg id="a58b89b4-9f8d-45f1-898b-b44cdf746769" data-name="Layer 1" xmlns="http://www.w3.org/2000/svg" viewBox="0 0 1105.22 296.39"><defs><style>.b4931318-15a8-4541-9739-6b5bca74d95a{fill:#242829;}.ac8dbe67-5aed-4ebe-b395-8370c39340b7{fill:#ea8ebb;}.a7e9fa37-c6af-4781-bec9-5891a61ae8c7{fill:#5c4949;}.f59746fd-bc82-4112-b58a-6268dcc8a08f{fill:#a8a4a4;}</style></defs><title>logo</title><path class="b4931318-15a8-4541-9739-6b5bca74d95a" d="M724.44,160.63c7.57.58,11.68,4.38,11.6,10.59-.08,6.06-4.36,9.79-11.78,10.1-3.48,19.51-13.18,35.25-29.68,46.49a66.73,66.73,0,0,1-44,11.66c-31.45-2.54-57.4-25.64-62.94-58.1H562.35c-3.67,19.76-13.52,35.68-30.45,46.91a68.22,68.22,0,0,1-42.53,11.28c-25.77-1.43-57.37-20.67-63.81-58.35-4.21.21-8.49.31-11.56-3.46a10.37,10.37,0,0,1-2.52-6.93c.13-6.4,3.91-9.17,14-10.25a69.44,69.44,0,0,1,68.5-59c31.15,0,62.31,21.75,68.55,59.1h25c3.35-19.73,13-35.58,29.5-47a66.9,66.9,0,0,1,39.62-12C689.26,101.94,718.62,125.17,724.44,160.63Zm-174.63,10a55.85,55.85,0,1,0-56,55.8A56,56,0,0,0,549.81,170.66ZM655.32,226.5a55.8,55.8,0,0,0,55.77-55.84c0-15.6-5.52-29.09-16.75-39.9-14.14-13.62-31.12-18.26-50.4-14.75-21.54,3.92-44.45,24.49-44.4,54.68A55.85,55.85,0,0,0,655.32,226.5Z" transform="translate(0)"/><path class="b4931318-15a8-4541-9739-6b5bca74d95a" d="M546.86,72.16c5.34,0,10.55,0,15.76,0,4.73,0,8.26,3.29,8.35,7.69s-3.3,7.82-8,8c-.54,0-1.08,0-1.62,0q-66.61,0-133.22,0a15.76,15.76,0,0,1-4-.34,7.84,7.84,0,0,1,2-15.36c5.57-.05,11.13,0,16.64,0a6,6,0,0,0,.32-3.08c0-12.06-.45-24.14,0-36.17.24-6,3.24-11.51,6.61-16.58C456.8,5.68,466.85.43,479.52.28,491,.13,502.61-.32,514.1.39c13,.81,26.84,10.19,31,24.73a44.07,44.07,0,0,1,1.62,12.74c-.13,11.16,0,22.32,0,33.48A6.51,6.51,0,0,0,546.86,72.16Z" transform="translate(0)"/><path class="b4931318-15a8-4541-9739-6b5bca74d95a" d="M686.1,47.41C664,35.21,641.8,37.94,619.26,47a39.85,39.85,0,0,1,2.4-12.73C626.85,19.52,638.43,11.36,654,11.1c8.3-.15,16.34,1,23.92,4.48,12.42,5.7,18.8,15.42,19.15,29.07,0,1.35,0,2.7.06,4.05,0,.07.08.14.24.42A122.57,122.57,0,0,1,717,54.36c10,3.8,19,9,26.4,16.8,3.55,3.72,2.9,6.12-2.05,7.74-24.2,7.94-49,12.27-74.51,12-25-.26-49-5-71.14-17.05a121.74,121.74,0,0,1-23.52-16.64,1.77,1.77,0,0,1-.22-.16c-1.43-1.71-3.53-3.54-2.53-5.82,1.12-2.53,3.81-1.28,5.82-1,18.8,3,37.55,3.58,56.38-.13a193.93,193.93,0,0,1,53-2.74C685.07,47.44,685.59,47.41,686.1,47.41Z" transform="translate(0)"/><path class="ac8dbe67-5aed-4ebe-b395-8370c39340b7" d="M592.27,269.46a121.74,121.74,0,0,1,12.65-10.57c6.5-4.89,13.43-9.1,21.22-11.55,10.51-3.32,20.54-3,29.07,5.41,2-1,3.33-2.92,5.27-4.08,7.42-4.44,15.14-3.81,23-1.66a52.76,52.76,0,0,1,12.4,5.46,123.49,123.49,0,0,1,21.58,16c.25.24.44.54.91,1.11-16.92,14.9-35.61,25.51-58.62,26.71C633.23,297.66,611.67,286.73,592.27,269.46Zm17.7,1.42c2.23.83,3.78,2,5.48,2.61a100.75,100.75,0,0,0,27.92,5.22c5.65.23,11.22-.55,16.9-.15a83.58,83.58,0,0,0,29.3-3.32,37.37,37.37,0,0,0,10.65-4.61c-2.28-1-4.16-1.86-6.07-2.63A56.67,56.67,0,0,0,663,264.39c-3.92.66-7.83,1.62-11.71.71C636.87,261.72,623.37,264.39,610,270.88Z" transform="translate(0)"/><path class="b4931318-15a8-4541-9739-6b5bca74d95a" d="M755.82,195.76v43.18H745.08v-112h10.58v13.56c8.82-10.35,19.61-16.15,33.28-15.91s24.41,6.06,32.76,16.56c13.26,16.67,11.46,42.12-3.09,57.32S774.74,217.85,755.82,195.76Zm-.63-27.57c-.54,19.4,14.47,32.65,32.15,32.93,17.47.28,32.34-15,32.36-32.91,0-18.49-14.44-33.2-32.52-33.18A32,32,0,0,0,755.19,168.19Z" transform="translate(0)"/><path class="b4931318-15a8-4541-9739-6b5bca74d95a" d="M108.9,118.7,100,125.43c-4.81-6-10.33-10.91-17.18-14.16-28-13.28-62.31.64-69.3,30.63-5.71,24.47,5.38,47,28.55,55.8,18.3,7,40.06,4,55.35-12.18l2.58-2.71,8.94,6.72A49.6,49.6,0,0,1,92.08,204c-20.76,10.49-41.92,11.08-62.65.45-15.55-8-24.65-21.52-28-38.53-2.62-13.21-1.87-26.33,4.44-38.61,8.24-16,21.08-26.46,38.67-30.48,17.31-4,33.93-2,49.33,7.43A50.21,50.21,0,0,1,108.9,118.7Z" transform="translate(0)"/><path class="b4931318-15a8-4541-9739-6b5bca74d95a" d="M1068.83,140.54V128.67h10v79.07h-9.87V196c-14.74,18.4-44.09,18.15-59.66,1.88-14.61-15.27-14.87-42.37-.78-57.9C1023.45,123.49,1054.23,121.43,1068.83,140.54Zm-29.7,59.81c.62,0,1.88-.09,3.13-.19a13.19,13.19,0,0,0,1.87-.28c12-2.77,19.53-10.45,23.14-21.83,3.77-11.88,1.39-22.7-7.17-32-12.37-13.47-30.13-11.47-40.42-2.27-7.16,6.41-10.52,14.5-11.1,24C1007.54,184.94,1021.34,200.07,1039.13,200.35Z" transform="translate(0)"/><path class="b4931318-15a8-4541-9739-6b5bca74d95a" d="M134.8,140.22c2.83-2.73,5.28-5.83,8.5-8.15,11.06-8,22.91-10.25,35.5-4.21,9.12,4.37,13.86,12.15,15.47,22,1.16,7.05,1.15,14.15,1.14,21.26,0,11.71,0,23.41,0,35.12v2.68H184.57c0-9.6,0-19,0-28.5,0-8.54.15-17.09-.5-25.64-.81-10.6-7.1-18.32-16.55-19.85-15.39-2.48-30.71,9.55-32.19,25.16-1.47,15.36-.65,30.76-.88,46.14,0,.8,0,1.61,0,2.63H123.65V95.2h10.51c.53.85.26,1.87.26,2.83,0,13.15,0,26.3,0,39.44,0,.93-.44,2,.38,2.82-.14-.22-.28-.23-.38,0,0,.06,0,.16,0,.25Z" transform="translate(0)"/><path class="b4931318-15a8-4541-9739-6b5bca74d95a" d="M400.68,186.72l8.42,5.63a37.86,37.86,0,0,1-21.39,16.08c-17.55,5.15-34.17,3.89-48.55-8.78a42.09,42.09,0,0,1-7.58-53.73c10.58-16.57,26.23-22.66,45.3-21A44.86,44.86,0,0,1,400,133.62a37.5,37.5,0,0,1,9.13,10.28l-8.47,5.32c-1.65-1.74-3.18-3.47-4.84-5.06C380.1,128.94,347,131.39,338,157.4c-6.82,19.57,7.22,41.29,27.8,43.38,13.7,1.4,25.17-2.53,34-13.3A6.67,6.67,0,0,1,400.68,186.72Z" transform="translate(0)"/><path class="b4931318-15a8-4541-9739-6b5bca74d95a" d="M317.5,144l-8.44,5.24c-1.15-1.26-2.3-2.51-3.43-3.76-13.41-14.77-43.7-15.6-56.67,6-6.07,10.12-5.29,25.05,1.61,35.23,12,17.71,40.26,19.18,54.94,3.75,1.12-1.17,2.2-2.36,3.51-3.77l8.52,5.61a37.46,37.46,0,0,1-19.14,15.32c-14.88,5.34-29.6,5.15-43.73-2.68-14.7-8.15-22.86-25.51-20.6-42.21,3.32-24.6,25.63-40.76,51.26-37.84,8.63,1,16.64,3.7,23.59,9A30.78,30.78,0,0,1,317.5,144Z" transform="translate(0)"/><path class="b4931318-15a8-4541-9739-6b5bca74d95a" d="M987.05,153.05c-3.28,0-6.59,0-9.89,0-1.58,0-1.83-1.29-2.4-2.21-4.34-7-10.17-12-18.42-13.89-20.36-4.62-34.45,10-36.55,25.89-1.56,11.74,1.22,22.2,10.41,30.29a29.06,29.06,0,0,0,44.63-7.91c.94-1.71,1.89-2.48,3.91-2.33,2.76.21,5.56.05,8.66.05-2.54,7.22-6.3,13.31-12,18.13-16.62,14.09-42.7,11.64-56.89-5.34a42.24,42.24,0,0,1,12.76-65c17.57-9.11,45.17-5.55,55.86,21.57C987.21,152.48,987.11,152.68,987.05,153.05Z" transform="translate(0)"/><path class="b4931318-15a8-4541-9739-6b5bca74d95a" d="M843.93,96.35h10.8V126.6h16.66v9.47H855v72.82h-10.9v-72.7H829.66v-9.38h14.27Z" transform="translate(0)"/><path class="a7e9fa37-c6af-4781-bec9-5891a61ae8c7" d="M563.74,275.5c-5.07,5.91-11.53,7.93-15.94,9.25a50.15,50.15,0,0,1-25.83.58,61.57,61.57,0,0,1-13.13-4.87c-6.95-3.21-6.31-4.16-12.43-8.32l-12.07,7.79a87.38,87.38,0,0,1-11,4.07c-10.8,3.59-21.69,4-32.49-.05a40.58,40.58,0,0,1-14.72-9.3c-3.81-3.81-4.67-8.22-2.55-12.22a12.69,12.69,0,0,1,12.29-6.17,9,9,0,0,1,6.11,4c-2.33.85-4.51,1.53-6.58,2.44-1.56.68-3.29,1.52-3.11,3.62s2,2.58,3.61,3.16c6.12,2.17,11.16.2,15.75-3.91,6.91-6.19,14.4-11.44,23.77-13.16a23,23,0,0,1,4.82-.4c2-.28,4.69.12,8.32,1.44,5.68,2.07,7.4,4.69,7.4,4.69a21.17,21.17,0,0,1,7.08-4.6,23.06,23.06,0,0,1,8-1.47,25.84,25.84,0,0,1,8.8,1.49c5.69,1.94,10.69,5.64,20.44,13a17.46,17.46,0,0,0,7.68,3.71,13.09,13.09,0,0,0,7.42-.93c1-.44,2.89-1.33,3.14-2.94a2.75,2.75,0,0,0-.16-1.34,4.37,4.37,0,0,0-2.65-2.18c-4.6-1.86-6.32-1.83-6.45-2.48-.24-1.2,5-4.9,10.41-3.82a10.9,10.9,0,0,1,8.52,8.43C568.9,269.47,565.89,273,563.74,275.5Z" transform="translate(0)"/><path class="b4931318-15a8-4541-9739-6b5bca74d95a" d="M1105.22,103.09V207.74h-10.08V103.09Z" transform="translate(0)"/><path class="b4931318-15a8-4541-9739-6b5bca74d95a" d="M896.19,208.91H885.63v-82.1h10.56Z" transform="translate(0)"/><path class="b4931318-15a8-4541-9739-6b5bca74d95a" d="M212.21,126.81h10.35c.47,2.13.63,77.15.18,82.07H212.21Z" transform="translate(0)"/><path class="b4931318-15a8-4541-9739-6b5bca74d95a" d="M890.64,110.55a8.71,8.71,0,0,1-8.56-8.84,8.83,8.83,0,1,1,17.65.29A8.66,8.66,0,0,1,890.64,110.55Z" transform="translate(0)"/><path class="b4931318-15a8-4541-9739-6b5bca74d95a" d="M217.47,110.55a8.85,8.85,0,0,1-8.94-8.79,9.18,9.18,0,0,1,9-8.93,9,9,0,0,1,8.71,9.1A8.57,8.57,0,0,1,217.47,110.55Z" transform="translate(0)"/><path class="f59746fd-bc82-4112-b58a-6268dcc8a08f" d="M467.77,134.13c-6.74,6.5-11.14,14.49-15,23.61C451.7,152.38,463.23,134.75,467.77,134.13Z" transform="translate(0)"/><path class="f59746fd-bc82-4112-b58a-6268dcc8a08f" d="M450.68,163.49a23.71,23.71,0,0,0,0,14.15C447.53,175.25,447.46,166.47,450.68,163.49Z" transform="translate(0)"/><path class="f59746fd-bc82-4112-b58a-6268dcc8a08f" d="M628.41,133.84C622.2,140.77,617,148.3,613.7,157.4,611.79,153.6,623.39,135.23,628.41,133.84Z" transform="translate(0)"/><path class="f59746fd-bc82-4112-b58a-6268dcc8a08f" d="M610.88,164.14c-1.16,4.39-.78,8.75.3,13.56C608.21,175.09,608.13,166.73,610.88,164.14Z" transform="translate(0)"/></svg>