<svg xmlns="http://www.w3.org/2000/svg" viewBox="0 0 1080 1080"><defs><style>.af481bd6-c17f-4195-8693-68fccbd6bb89,.bebbd99f-e87c-4fec-83ae-8cc81e9b3612{fill:none;stroke:#000;stroke-miterlimit:10;stroke-width:35px;}.af481bd6-c17f-4195-8693-68fccbd6bb89{stroke-dasharray:48.24 48.24;}</style></defs><title>Artboard 2</title><g id="aa7fe792-ea80-4d0c-b96b-49a682b77265" data-name="Nosebridge"><path d="M1079.56,814.93c-60,6-119.65,2.51-178.4-14.3-83.69-23.94-143.37-77.49-182.5-153.93-31.07-60.71-46.53-126.19-51.51-194-3.82-52,19.27-90.72,62.71-118,34.22-21.52,72.29-32.61,111.54-40.13,52.11-10,104.82-12.88,178.08-12.46,16.33.21,37.09.55,60.08,2.16V248.92c-88.1-6.23-175.8.71-262.91,16-62.72,11-124.87,25.27-187.36,37.62-44.58,8.81-89.61,14.37-134.84,6.44s-90.06-16.83-134.77-26.69c-98-21.64-196.31-40.36-297.4-34.8-20,0-40.18-1.45-60.06.24L-.44,248V280.2c9.75-.5,19.52-.86,29.29-1.14,12.44-.35,24.9-.05,37.35-.05,69.3-1.74,137.69,4.79,204.33,24.76,38.34,11.49,74.74,27.05,105.31,53.88,30.15,26.47,43.74,59.53,40.47,99.63-5.73,70.29-25.06,136.88-60.24,197.68-49.35,85.3-123,138.55-221.18,155-45,7.56-90.26,10.59-135.33,5.41V842c41.23,5.16,82.69,3.63,124.17-1.45C168.92,835,212.4,823.16,253,802c62-32.24,106.11-82,139.62-142.12,24.59-44.09,43.48-90.7,60.6-138.09,8.46-23.45,18.75-45.95,35.13-65.36,30-35.52,94.92-29.73,115.76,12.09a239,239,0,0,1,13.18,30.9c20.94,62.82,45,124.24,78.24,181.79C743.35,764,811.91,818.33,907,836.6c57.25,11,114.83,12.95,172.52,7.76Z"/><line class="bebbd99f-e87c-4fec-83ae-8cc81e9b3612" x1="545.72" y1="847.56" x2="545.72" y2="820.06"/><line class="af481bd6-c17f-4195-8693-68fccbd6bb89" x1="545.72" y1="771.82" x2="545.72" y2="602.96"/><line class="bebbd99f-e87c-4fec-83ae-8cc81e9b3612" x1="545.72" y1="578.84" x2="545.72" y2="551.34"/><polygon points="546.56 454.74 505.55 551.78 587.58 551.78 546.56 454.74"/></g></svg>