<svg id="Layer_1" data-name="Layer 1" xmlns="http://www.w3.org/2000/svg" viewBox="0 0 1080 1080"><defs><style>.cls-1{fill:#23aed8;}</style></defs><title>logo</title><path class="cls-1" d="M950.33,0H129.67A129.66,129.66,0,0,0,0,129.67V950.33A129.66,129.66,0,0,0,129.67,1080H950.33A129.66,129.66,0,0,0,1080,950.33V129.67A129.66,129.66,0,0,0,950.33,0ZM459.84,404.61Q408.2,373.77,342.2,373.76q-72.45,0-116.92,45.55T180.81,542.69q0,74.61,42,118.89t113,44.3q67.78,0,124.09-33V778.69q-56.31,27.25-147,27.25-118.35,0-186.14-69.58T58.86,550.94q0-123.38,76.22-200.13t197.8-76.75q75.31,0,127,19ZM950.66,731.7Q880.19,806,766.85,805.94q-110.48,0-180.05-71.91T517.22,546.64q0-122,70.66-197.27T775.1,274.06q110.1,0,178.07,72.09t68,190.08Q1021.14,657.46,950.66,731.7Z"/><path class="cls-1" d="M771.87,373.76q-61,0-96.84,45.73t-35.86,121q0,76.4,35.86,120.87t94,44.47q59.89,0,95-43.22t35.14-120q0-80-34.07-124.45T771.87,373.76Z"/></svg>